HIERARCHY
ROOT Hips
{
	OFFSET 0.00000 0.00000 0.00000
	CHANNELS 6 Xposition Yposition Zposition Zrotation Yrotation Xrotation 
	JOINT LHipJoint
	{
		OFFSET 0 0 0
		CHANNELS 3 Zrotation Yrotation Xrotation
		JOINT LeftUpLeg
		{
			OFFSET 1.75344 -1.53157 0.77399
			CHANNELS 3 Zrotation Yrotation Xrotation
			JOINT LeftLeg
			{
				OFFSET 2.25415 -6.19323 0.00000
				CHANNELS 3 Zrotation Yrotation Xrotation
				JOINT LeftFoot
				{
					OFFSET 2.30342 -6.32861 0.00000
					CHANNELS 3 Zrotation Yrotation Xrotation
					JOINT LeftToeBase
					{
						OFFSET 0.10958 -0.30108 1.49206
						CHANNELS 3 Zrotation Yrotation Xrotation
						End Site
						{
							OFFSET 0.00000 -0.00000 0.77783
						}
					}
				}
			}
		}
	}
	JOINT RHipJoint
	{
		OFFSET 0 0 0
		CHANNELS 3 Zrotation Yrotation Xrotation
		JOINT RightUpLeg
		{
			OFFSET -1.81912 -1.53156 0.77399
			CHANNELS 3 Zrotation Yrotation Xrotation
			JOINT RightLeg
			{
				OFFSET -2.22882 -6.12365 0.00000
				CHANNELS 3 Zrotation Yrotation Xrotation
				JOINT RightFoot
				{
					OFFSET -2.21943 -6.09785 0.00000
					CHANNELS 3 Zrotation Yrotation Xrotation
					JOINT RightToeBase
					{
						OFFSET -0.18931 -0.52012 1.59379
						CHANNELS 3 Zrotation Yrotation Xrotation
						End Site
						{
							OFFSET -0.00000 -0.00000 0.84686
						}
					}
				}
			}
		}
	}
	JOINT LowerBack
	{
		OFFSET 0 0 0
		CHANNELS 3 Zrotation Yrotation Xrotation
		JOINT Spine
		{
			OFFSET -0.00200 1.66634 -0.14248
			CHANNELS 3 Zrotation Yrotation Xrotation
			JOINT Spine1
			{
				OFFSET -0.00875 1.64542 0.09514
				CHANNELS 3 Zrotation Yrotation Xrotation
				JOINT Neck
				{
					OFFSET 0 0 0
					CHANNELS 3 Zrotation Yrotation Xrotation
					JOINT Neck1
					{
						OFFSET 0.02257 1.59605 0.00839
						CHANNELS 3 Zrotation Yrotation Xrotation
						JOINT Head
						{
							OFFSET -0.10214 1.57530 -0.23335
							CHANNELS 3 Zrotation Yrotation Xrotation
							End Site
							{
								OFFSET -0.03588 1.60717 -0.08062
							}
						}
					}
				}
				JOINT LeftShoulder
				{
					OFFSET 0 0 0
					CHANNELS 3 Zrotation Yrotation Xrotation
					JOINT LeftArm
					{
						OFFSET 2.54983 1.10186 0.40078
						CHANNELS 3 Zrotation Yrotation Xrotation
						JOINT LeftForeArm
						{
							OFFSET 4.28840 -0.00000 0.00000
							CHANNELS 3 Zrotation Yrotation Xrotation
							JOINT LeftHand
							{
								OFFSET 3.06552 -0.00000 -0.00000
								CHANNELS 3 Zrotation Yrotation Xrotation
								JOINT LeftFingerBase
								{
									OFFSET 0 0 0
									CHANNELS 3 Zrotation Yrotation Xrotation
									JOINT LeftHandIndex1
									{
										OFFSET 0.75304 -0.00000 0.00000
										CHANNELS 3 Zrotation Yrotation Xrotation
										End Site
										{
											OFFSET 0.60712 -0.00000 0.00000
										}
									}
								}
								JOINT LThumb
								{
									OFFSET 0 0 0
									CHANNELS 3 Zrotation Yrotation Xrotation
									End Site
									{
										OFFSET 0.61639 -0.00000 0.61639
									}
								}
							}
						}
					}
				}
				JOINT RightShoulder
				{
					OFFSET 0 0 0
					CHANNELS 3 Zrotation Yrotation Xrotation
					JOINT RightArm
					{
						OFFSET -2.60909 1.35448 0.21802
						CHANNELS 3 Zrotation Yrotation Xrotation
						JOINT RightForeArm
						{
							OFFSET -4.52172 -0.00000 -0.00000
							CHANNELS 3 Zrotation Yrotation Xrotation
							JOINT RightHand
							{
								OFFSET -2.89140 -0.00000 0.00000
								CHANNELS 3 Zrotation Yrotation Xrotation
								JOINT RightFingerBase
								{
									OFFSET 0 0 0
									CHANNELS 3 Zrotation Yrotation Xrotation
									JOINT RightHandIndex1
									{
										OFFSET -0.68054 -0.00000 0.00000
										CHANNELS 3 Zrotation Yrotation Xrotation
										End Site
										{
											OFFSET -0.54867 -0.00000 0.00000
										}
									}
								}
								JOINT RThumb
								{
									OFFSET 0 0 0
									CHANNELS 3 Zrotation Yrotation Xrotation
									End Site
									{
										OFFSET -0.55705 -0.00000 0.55705
									}
								}
							}
						}
					}
				}
			}
		}
	}
}
MOTION
Frames: 11
Frame Time: 0.111111
0.00 0.00 0.00 0 0 0 0 0 0 -21 0 0 0 0 0 0 0 0 0 0 0 0 0 0 21 0 0 0 0 0 0 0 0 0 0 0 0 0 0 0 0 0 0 0 0 0 0 -16 0 0 21 0 0 11 0 0 0 -8 0 0 0 0 0 0 0 0 0 0 0 0 0 0 0 0 0 0 0 0 8 0 0 0 0 0 0 0 0 0 0 0 0 0 0 0 0 0
0.00 0.00 0.00 -178.8640 4.2441 183.1370 0.0000 0.0000 0.0000 -19.6229 -12.0650 -16.3890 4.3167 12.5703 37.7804 2.2687 -2.0227 -27.9653 2.8413 -10.4337 -30.3928 0.0000 0.0000 0.0000 23.6413 11.6852 -12.8718 -3.4964 -11.4583 33.8415 -1.0406 -12.4374 -27.4231 -0.2954 3.4950 -9.6600 1.7391 1.0873 12.7824 0.1942 1.7674 -2.8239 -1.1503 0.7484 -10.2030 -4.7032 -1.5339 -8.3773 4.5160 -1.8474 5.9678 2.2471 -0.8324 3.5605 -0.0000 -0.0000 0.0000 -85.7918 10.9598 33.3005 21.8100 -32.7616 -6.4827 -0.0000 -0.0000 10.5700 7.2482 -33.9173 -4.0594 -7.1250 0.0000 -0.0000 -13.8973 -3.2741 15.1094 -0.0000 -0.0000 0.0000 84.2701 -10.5078 39.4797 -20.6399 31.4056 -5.8612 0.0000 0.0000 26.3818 -10.0349 -53.3262 8.0779 7.1250 -0.0000 -0.0000 68.8573 -75.0765 -53.8617
0.00 0.00 0.00 -177.9940 6.3040 191.0480 0.0000 0.0000 0.0000 -15.8009 -13.8079 -34.5171 8.5897 16.5363 54.6600 3.5413 -3.0179 -34.9678 3.3052 -11.1734 -32.8670 0.0000 0.0000 0.0000 21.4932 18.6904 -30.2119 -7.6535 -15.8584 51.3048 -2.2780 -10.5482 -33.8415 -0.0398 1.2878 -3.5411 1.8788 1.1740 15.5722 0.2471 1.9775 -2.0593 -1.2854 0.8367 -10.9752 -4.9234 -1.9559 -8.6653 5.4367 -1.8574 -3.1060 2.5297 -0.6823 0.6202 -0.0000 -0.0000 0.0000 -85.9588 7.4631 28.7162 21.7990 -32.7491 -6.4768 -0.0000 -0.0000 10.0027 8.2759 -32.6355 -4.4852 -7.1250 0.0000 -0.0000 -13.2553 -2.1602 14.1234 -0.0000 -0.0000 0.0000 83.6311 -4.4283 38.4658 -21.4182 32.3133 -6.2720 0.0000 0.0000 26.3676 -19.2320 -49.4094 14.8379 7.1250 -0.0000 -0.0000 48.5753 -77.0991 -38.0709
0.00 0.00 0.00 -175.9150 7.3692 202.7410 0.0000 0.0000 0.0000 -9.0504 -16.8215 -54.5966 13.9227 19.0904 71.9682 4.6655 -5.3044 -39.9629 1.4993 -7.7344 -21.9102 0.0000 0.0000 0.0000 17.7466 28.7184 -48.4264 -12.1838 -18.4673 66.5701 -2.7745 -14.2834 -38.9786 -0.0003 0.1175 -0.3228 1.3954 0.7670 19.9460 0.4187 1.4585 -2.6058 -0.7878 0.5861 -14.2116 -3.0156 -1.8712 -11.0143 5.7665 -0.0503 -13.7851 2.3729 0.7623 -2.5585 0.0000 0.0000 0.0000 -88.8338 4.9297 20.1835 22.6395 -33.6923 -6.9373 -0.0000 -0.0000 2.6756 12.3982 -34.1975 -7.0435 -7.1250 0.0000 -0.0000 -11.1062 -4.2715 12.1255 0.0000 0.0000 0.0000 84.3500 0.5691 40.1899 -18.1554 28.3557 -4.6228 0.0000 0.0000 25.4976 -17.7827 -48.7629 13.5600 7.1250 -0.0000 -0.0000 47.4557 -76.1635 -36.3029
0.00 0.00 0.00 -176.2910 4.1997 204.3260 0.0000 0.0000 0.0000 -8.2226 -18.7900 -55.4528 15.9620 19.6045 78.1185 4.1411 -6.9233 -37.2915 1.7031 -8.2180 -23.3783 0.0000 0.0000 0.0000 20.7467 23.0568 -50.0541 -14.2653 -19.1925 73.0129 -2.8842 -14.3204 -39.5298 -0.0162 0.8225 -2.2605 0.8653 1.3075 18.9281 0.5023 2.0422 -2.6819 -0.5496 0.9056 -13.7060 -1.7963 -2.0194 -12.4201 1.7122 0.0544 -16.5508 0.8066 1.1424 -3.2725 0.0000 -0.0000 0.0000 -79.8542 -11.2704 4.7359 18.5939 -28.9109 -4.8329 -0.0000 -0.0000 21.8219 5.2903 -39.4833 -3.3695 -7.1250 0.0000 -0.0000 -15.3080 -8.3936 17.9863 0.0000 -0.0000 0.0000 74.3428 33.5577 35.1879 -24.3643 35.5471 -7.9173 0.0000 0.0000 14.5383 -18.0100 -57.2137 15.2868 7.1250 -0.0000 -0.0000 85.1915 -78.4897 -73.3871
0.00 0.00 0.00 -176.9680 5.4302 201.4150 0.0000 0.0000 0.0000 -12.9094 -15.3477 -40.5309 10.5107 17.6872 61.1819 3.0486 -6.1344 -31.8084 2.4879 -9.8158 -28.3823 0.0000 0.0000 0.0000 23.0233 16.8537 -36.4023 -9.0357 -16.8306 56.2135 -1.7944 -11.4117 -31.6081 -0.0861 1.8930 -5.2102 0.4900 2.0494 16.3411 -0.1836 2.8329 -3.7041 -1.2605 1.2662 -13.3217 -1.0381 1.2969 -13.5909 -1.8995 -0.0587 -12.2822 -0.4028 -0.7458 -1.6355 0.0000 -0.0000 0.0000 -61.9834 0.8753 22.5284 38.7428 -47.3072 -17.5095 -0.0000 -0.0000 13.9152 -8.6138 -39.4262 5.4952 -7.1250 0.0000 -0.0000 -22.1527 -7.2731 26.7364 0.0000 -0.0000 0.0000 55.0185 52.2447 30.7887 -39.3884 47.7033 -17.9855 0.0000 0.0000 6.7299 -2.0183 -61.4724 1.7735 7.1250 -0.0000 -0.0000 98.5280 -72.6382 -80.9380
0.00 0.00 0.00 -177.8490 4.5636 195.0780 0.0000 0.0000 0.0000 -17.3961 -9.5538 -22.5206 5.5711 13.9994 43.2350 0.6388 -4.0451 -14.2676 2.5428 -9.9152 -28.7027 0.0000 0.0000 0.0000 24.8491 6.1123 -19.2615 -4.1816 -12.3983 37.1559 -0.0158 -9.7654 -14.1724 -0.1149 2.1853 -6.0180 0.5411 3.1707 12.8804 -0.6518 4.3186 -4.4642 -2.0121 1.9814 -12.0423 -0.9238 0.3293 -11.2710 -1.5696 -0.0785 -5.1927 -0.3337 -0.3027 0.2426 0.0000 -0.0000 0.0000 -52.6309 9.1611 40.2347 48.2350 -52.2583 -24.7714 -0.0000 -0.0000 13.2705 -15.7510 -37.6653 9.7786 -7.1250 0.0000 -0.0000 -25.5711 -5.6277 31.0895 0.0000 -0.0000 0.0000 43.1970 50.5399 24.9598 -47.1806 51.7931 -23.9403 0.0000 0.0000 5.5079 5.1175 -61.2574 -4.4897 7.1250 -0.0000 -0.0000 98.0199 -70.4508 -77.9438
0.00 0.00 0.00 -179.0220 0.9984 190.1680 0.0000 0.0000 0.0000 -19.2380 -9.4464 -9.3372 2.6570 10.1180 29.3597 0.0963 5.0637 6.1215 1.0945 -6.6482 -18.6773 0.0000 0.0000 0.0000 24.2568 3.8381 -5.4588 -1.6056 -7.9911 22.6871 0.8244 -19.6048 5.1713 -0.0006 -0.1526 0.4193 -0.0437 3.2488 9.5072 -0.3354 4.4135 -4.7744 -1.1514 2.1445 -10.4410 -0.9203 0.0967 -9.1895 -2.6451 0.2764 2.2440 -0.6745 0.0058 2.3009 0.0000 0.0000 0.0000 -54.2702 13.9726 45.6379 45.2943 -50.9119 -22.4670 -0.0000 -0.0000 14.4369 -25.7544 -31.1597 14.0160 -7.1250 0.0000 -0.0000 -30.7086 -0.4738 36.7179 0.0000 0.0000 0.0000 40.6665 44.8076 28.0748 -43.4426 49.9823 -21.0392 0.0000 0.0000 8.5407 5.5863 -58.8454 -4.7847 7.1250 -0.0000 -0.0000 91.3736 -70.3730 -70.5729
0.00 0.00 0.00 -179.8890 -2.8246 187.5590 0.0000 0.0000 0.0000 -20.9470 -16.8616 0.1457 1.3712 7.4108 20.9382 -0.5236 22.3226 11.5214 0.6710 5.2383 14.5896 0.0000 0.0000 0.0000 24.4004 9.2899 3.8042 -0.7266 -5.4466 15.1869 5.4530 -38.0212 -7.6738 -5.3689 -13.7876 42.3931 -0.4631 2.8282 7.8568 -0.1954 3.6183 -5.1994 -0.5324 1.7242 -9.9733 0.5656 1.4069 -8.4256 -3.9580 2.1103 7.2156 -1.2981 0.8451 3.9312 0.0000 -0.0000 0.0000 -57.8167 18.0004 46.4952 41.0858 -48.7002 -19.2510 -0.0000 -0.0000 15.3960 -28.6658 -26.2208 13.5798 -7.1250 0.0000 -0.0000 -32.6553 3.5181 37.4790 0.0000 -0.0000 0.0000 41.2062 39.3016 31.9829 -40.8323 48.5553 -19.0608 0.0000 0.0000 11.7704 4.0641 -56.7983 -3.4023 7.1250 -0.0000 -0.0000 85.2010 -70.7278 -64.5356
0.00 0.00 0.00 -180.4550 -7.0496 187.3190 0.0000 0.0000 0.0000 -22.8629 -24.4486 3.6684 1.0936 6.6457 18.6699 -3.7555 32.2210 -8.0510 5.8746 14.3057 44.4762 0.0000 0.0000 0.0000 24.3961 11.1727 4.5545 -0.6319 -5.0863 14.1549 6.7413 -40.8604 -12.1443 -6.9953 -15.3279 48.8566 0.0846 2.6012 6.1305 -0.5012 3.2986 -5.6982 -1.0351 1.5053 -9.4433 3.5544 3.4928 -8.0317 -6.2906 4.8127 8.8036 -2.2170 2.1089 4.1858 -0.0000 -0.0000 0.0000 -62.2226 18.7810 45.7474 34.8291 -44.6897 -14.6931 -0.0000 -0.0000 16.2799 -27.0002 -24.9225 12.1181 -7.1250 0.0000 -0.0000 -32.1313 5.0063 35.5250 -0.0000 -0.0000 0.0000 41.7079 32.3912 32.3637 -38.9439 47.4316 -17.6575 0.0000 0.0000 13.2489 3.4154 -55.0161 -2.7994 7.1250 -0.0000 -0.0000 79.9624 -70.6596 -59.1955
0.00 0.00 0.00 -180.5590 -9.8962 188.1580 0.0000 0.0000 0.0000 -22.7474 -25.2917 1.2629 1.1650 6.8519 19.2774 -1.5138 26.8943 -28.1408 9.4190 17.0699 57.5280 0.0000 0.0000 0.0000 24.0729 10.9846 1.6849 -0.6724 -5.2437 14.6049 6.3605 -40.1441 -10.1973 -6.5638 -14.9533 47.2045 0.9686 2.7301 5.1140 -0.9280 3.4969 -5.8814 -1.9547 1.5239 -8.9569 5.0605 4.9352 -8.3001 -7.2601 6.6669 8.4716 -2.6270 3.0221 4.3071 0.0000 0.0000 0.0000 -65.5250 17.1953 43.3589 29.8304 -40.7475 -11.2987 -0.0000 -0.0000 19.2251 -25.4765 -25.3790 11.5421 -7.1250 0.0000 -0.0000 -31.3768 4.8387 34.4188 0.0000 0.0000 0.0000 42.3812 26.8360 30.3547 -37.7116 46.6541 -16.7555 0.0000 0.0000 13.1205 1.4175 -55.1637 -1.1635 7.1250 -0.0000 -0.0000 79.5406 -71.3775 -59.6618
